<svg width="40" height="41" viewBox="0 0 40 41" fill="none" xmlns="http://www.w3.org/2000/svg">
<path fill-rule="evenodd" clip-rule="evenodd" d="M39.3633 15.9319C39.3593 15.888 39.3506 15.8446 39.3371 15.8025C39.3284 15.7649 39.3162 15.7282 39.3008 15.6928C39.2829 15.6582 39.2616 15.6254 39.237 15.5952C39.2124 15.5592 39.184 15.5261 39.1522 15.4963C39.1473 15.492 39.1437 15.487 39.1401 15.4819C39.1362 15.4764 39.1323 15.4709 39.1267 15.4663L32.9936 10.7031V5.76635C32.9936 4.70974 32.137 3.85313 31.0803 3.85313H24.1691L21.4019 1.70456C20.7183 1.1714 19.7597 1.1714 19.076 1.70456L16.3082 3.85313H9.397C8.34039 3.85313 7.48377 4.70967 7.48377 5.76635V10.7031L1.35256 15.4664C1.34694 15.4711 1.34303 15.4766 1.33914 15.482C1.33554 15.4871 1.33197 15.4921 1.32707 15.4964C1.29531 15.5261 1.26684 15.5593 1.24225 15.5952C1.21774 15.6255 1.19636 15.6582 1.1785 15.6929C1.16303 15.7282 1.15092 15.765 1.14218 15.8026C1.12888 15.844 1.12013 15.8868 1.11602 15.9301C1.11602 15.9368 1.11412 15.943 1.11221 15.9493L1.11221 15.9493C1.1103 15.9555 1.1084 15.9617 1.1084 15.9684V37.6534C1.1093 38.0591 1.24053 38.4537 1.48275 38.779C1.48445 38.7816 1.48553 38.7844 1.48659 38.7872C1.48791 38.7906 1.4892 38.794 1.49164 38.7968C1.49373 38.7992 1.49693 38.8017 1.5004 38.8045L1.50044 38.8045C1.50439 38.8076 1.50867 38.811 1.51204 38.8147C1.87033 39.2861 2.42755 39.5641 3.01968 39.5666H37.4577C38.0522 39.5648 38.6117 39.2855 38.9705 38.8116C38.9729 38.8085 38.976 38.8065 38.979 38.8045C38.9822 38.8023 38.9854 38.8002 38.9876 38.7969C38.9921 38.7906 38.9927 38.7848 38.9966 38.7791C39.2388 38.4537 39.3701 38.0591 39.371 37.6535V15.9702C39.3709 15.9632 39.369 15.9568 39.3671 15.9503C39.3653 15.9443 39.3636 15.9383 39.3633 15.9319ZM19.856 2.71087C20.0787 2.5339 20.3941 2.5339 20.6168 2.71087L22.088 3.85305H18.3892L19.856 2.71087ZM3.18036 38.2912L19.8561 25.338C20.0789 25.1613 20.3941 25.1613 20.6169 25.338L37.297 38.2912H3.18036ZM21.4019 24.3316L38.0953 37.2968V16.9415L27.6262 25.0707C27.4464 25.2135 27.2037 25.2487 26.9908 25.1628C26.7779 25.0769 26.6276 24.8832 26.5973 24.6556C26.5669 24.4281 26.6613 24.2018 26.8443 24.0631L37.4799 15.8044L32.9933 12.3178V17.2456C32.9933 17.5978 32.7079 17.8833 32.3556 17.8833C32.0034 17.8833 31.7179 17.5979 31.7179 17.2456V5.76628C31.7179 5.41405 31.4324 5.12856 31.0802 5.12856H9.397C9.04477 5.12856 8.75928 5.41405 8.75928 5.76628V17.2456C8.75928 17.5978 8.47379 17.8833 8.12157 17.8833C7.76941 17.8833 7.48385 17.5979 7.48385 17.2456V12.3178L2.99733 15.8044L13.6145 24.0484C13.8929 24.2643 13.9436 24.6651 13.7277 24.9435C13.5118 25.222 13.111 25.2727 12.8326 25.0567L2.38189 16.9415V37.2969L19.076 24.3316C19.7598 23.7989 20.7181 23.7989 21.4019 24.3316ZM19.2266 9.19832C19.2266 8.63858 19.6803 8.18481 20.2401 8.18481C20.7998 8.18481 21.2536 8.63858 21.2536 9.19832V15.3684C21.2536 15.9281 20.7998 16.3819 20.2401 16.3819C19.6803 16.3819 19.2266 15.9281 19.2266 15.3684V9.19832ZM20.2403 18.4158C19.6824 18.4158 19.2266 18.8681 19.2266 19.426C19.2266 19.9838 19.6824 20.4361 20.2403 20.4361C20.7981 20.4361 21.254 19.9838 21.254 19.426C21.254 18.8681 20.7981 18.4158 20.2403 18.4158Z" fill="#526DB4"/>
<path d="M39.3371 15.8025L38.7527 15.9385L38.7582 15.9621L38.7656 15.9852L39.3371 15.8025ZM39.3633 15.9319L39.9625 15.902L39.9619 15.89L39.9608 15.878L39.3633 15.9319ZM39.3008 15.6928L39.8511 15.4536L39.8431 15.4353L39.834 15.4176L39.3008 15.6928ZM39.237 15.5952L38.7418 15.9339L38.7555 15.9539L38.7708 15.9728L39.237 15.5952ZM39.1522 15.4963L39.5629 15.0589L39.5544 15.0509L39.5456 15.0433L39.1522 15.4963ZM39.1401 15.4819L39.6297 15.135L39.6296 15.135L39.1401 15.4819ZM39.1267 15.4663L39.5074 15.0026L39.5012 14.9974L39.4948 14.9925L39.1267 15.4663ZM32.9936 10.7031H32.3936V10.9968L32.6255 11.1769L32.9936 10.7031ZM24.1691 3.85313L23.8011 4.32705L23.9635 4.45313H24.1691V3.85313ZM21.4019 1.70456L21.0329 2.17768L21.0339 2.17848L21.4019 1.70456ZM19.076 1.70456L19.444 2.17852L19.445 2.17768L19.076 1.70456ZM16.3082 3.85313V4.45313H16.5138L16.6761 4.32708L16.3082 3.85313ZM7.48377 10.7031L7.85187 11.177L8.08377 10.9968V10.7031H7.48377ZM1.35256 15.4664L0.984458 14.9926L0.977143 14.9983L0.970007 15.0042L1.35256 15.4664ZM1.33914 15.482L0.850316 15.1341L0.850306 15.1341L1.33914 15.482ZM1.32707 15.4964L0.931991 15.0448L0.924353 15.0515L0.916946 15.0584L1.32707 15.4964ZM1.24225 15.5952L1.70852 15.9729L1.72379 15.954L1.73748 15.934L1.24225 15.5952ZM1.1785 15.6929L0.6451 15.4181L0.636427 15.4349L0.628832 15.4523L1.1785 15.6929ZM1.14218 15.8026L1.71351 15.9858L1.72101 15.9624L1.72658 15.9385L1.14218 15.8026ZM1.11602 15.9301L0.518701 15.8735L0.516021 15.9018V15.9301H1.11602ZM1.11221 15.9493L0.538412 15.7735L0.535211 15.7847L1.11221 15.9493ZM1.11221 15.9493L1.68601 16.125L1.68921 16.1138L1.11221 15.9493ZM1.1084 37.6534H0.508397L0.5084 37.6547L1.1084 37.6534ZM1.48275 38.779L1.98305 38.4478L1.9739 38.434L1.964 38.4207L1.48275 38.779ZM1.48659 38.7872L0.92582 39.0006L0.925898 39.0008L1.48659 38.7872ZM1.49164 38.7968L1.03854 39.1902L1.04164 39.1937L1.49164 38.7968ZM1.5004 38.8045L1.12941 39.2762L1.13829 39.2829L1.5004 38.8045ZM1.50044 38.8045L1.8716 38.3329L1.86255 38.3261L1.50044 38.8045ZM1.51204 38.8147L1.98974 38.4517L1.97421 38.4312L1.95699 38.4122L1.51204 38.8147ZM3.01968 39.5666L3.01711 40.1666H3.01968V39.5666ZM37.4577 39.5666V40.1666L37.4595 40.1666L37.4577 39.5666ZM38.9705 38.8116L38.5021 38.4365L38.497 38.4429L38.492 38.4495L38.9705 38.8116ZM38.979 38.8045L38.6466 38.305L38.6463 38.3051L38.979 38.8045ZM38.9876 38.7969L38.4975 38.4508L38.4947 38.4549L38.9876 38.7969ZM38.9966 38.7791L38.5153 38.4208L38.5071 38.4319L38.4994 38.4433L38.9966 38.7791ZM39.371 37.6535L39.971 37.6548V37.6535H39.371ZM39.371 15.9702H39.971L39.971 15.9669L39.371 15.9702ZM39.3671 15.9503L39.9426 15.7806L39.9426 15.7805L39.3671 15.9503ZM20.6168 2.71087L20.2435 3.18065L20.2489 3.18481L20.6168 2.71087ZM19.856 2.71087L20.2246 3.1843L20.2293 3.18062L19.856 2.71087ZM22.088 3.85305V4.45305H23.8393L22.456 3.37911L22.088 3.85305ZM18.3892 3.85305L18.0205 3.37965L16.642 4.45305H18.3892V3.85305ZM19.8561 25.338L20.2241 25.8118L20.2288 25.8082L19.8561 25.338ZM3.18036 38.2912L2.81229 37.8173L1.42985 38.8912H3.18036V38.2912ZM20.6169 25.338L20.244 25.8081L20.2489 25.8119L20.6169 25.338ZM37.297 38.2912V38.8912H39.0479L37.665 37.8173L37.297 38.2912ZM38.0953 37.2968L37.7273 37.7707L38.6953 38.5225V37.2968H38.0953ZM21.4019 24.3316L21.0331 24.8049L21.0339 24.8055L21.4019 24.3316ZM38.0953 16.9415H38.6953V15.7159L37.7273 16.4676L38.0953 16.9415ZM27.6262 25.0707L27.2581 24.5968L27.2529 24.601L27.6262 25.0707ZM26.9908 25.1628L26.7664 25.7192L26.7664 25.7193L26.9908 25.1628ZM26.5973 24.6556L26.0025 24.7349V24.7349L26.5973 24.6556ZM26.8443 24.0631L27.2067 24.5414L27.2123 24.537L26.8443 24.0631ZM37.4799 15.8044L37.8479 16.2783L38.4579 15.8045L37.848 15.3306L37.4799 15.8044ZM32.9933 12.3178L33.3615 11.844L32.3933 11.0917V12.3178H32.9933ZM7.48385 12.3178H8.08385V11.0917L7.11568 11.844L7.48385 12.3178ZM2.99733 15.8044L2.62916 15.3306L2.01928 15.8046L2.62935 16.2783L2.99733 15.8044ZM13.6145 24.0484L13.2465 24.5223L13.2468 24.5226L13.6145 24.0484ZM13.7277 24.9435L13.2535 24.5759L13.2535 24.5759L13.7277 24.9435ZM12.8326 25.0567L12.4646 25.5306L12.4649 25.5309L12.8326 25.0567ZM2.38189 16.9415L2.74989 16.4676L1.78189 15.7159V16.9415H2.38189ZM2.38189 37.2969H1.78189V38.5226L2.74992 37.7708L2.38189 37.2969ZM19.076 24.3316L19.4441 24.8055L19.4448 24.8049L19.076 24.3316ZM38.7656 15.9852L38.7657 15.9858L39.9608 15.878C39.953 15.7907 39.9356 15.7041 39.9086 15.6198L38.7656 15.9852ZM38.7505 15.9319C38.7516 15.9345 38.7523 15.9367 38.7527 15.9385L39.9215 15.6665C39.9044 15.5931 39.8807 15.5219 39.8511 15.4536L38.7505 15.9319ZM38.7708 15.9728C38.7695 15.9712 38.7685 15.9696 38.7676 15.968L39.834 15.4176C39.7974 15.3467 39.7536 15.2796 39.7033 15.2176L38.7708 15.9728ZM38.7416 15.9337L38.7418 15.9339L39.7323 15.2564C39.6827 15.184 39.6258 15.1179 39.5629 15.0589L38.7416 15.9337ZM38.6505 15.8287C38.6506 15.8288 38.6629 15.8466 38.6785 15.8659C38.6958 15.8874 38.7223 15.9177 38.7588 15.9493L39.5456 15.0433C39.5771 15.0706 39.5994 15.0962 39.6128 15.1128C39.6244 15.1273 39.6332 15.14 39.6297 15.135L38.6505 15.8287ZM38.746 15.9301C38.7107 15.9011 38.6857 15.8732 38.6702 15.8543C38.6567 15.8379 38.6467 15.8234 38.6505 15.8288L39.6296 15.135C39.6296 15.1349 39.6157 15.1149 39.5979 15.0932C39.5781 15.0691 39.5484 15.0362 39.5074 15.0026L38.746 15.9301ZM32.6255 11.1769L38.7587 15.9402L39.4948 14.9925L33.3616 10.2292L32.6255 11.1769ZM32.3936 5.76635V10.7031H33.5936V5.76635H32.3936ZM31.0803 4.45313C31.8056 4.45313 32.3936 5.04111 32.3936 5.76635H33.5936C33.5936 4.37837 32.4683 3.25313 31.0803 3.25313V4.45313ZM24.1691 4.45313H31.0803V3.25313H24.1691V4.45313ZM21.0339 2.17848L23.8011 4.32705L24.5371 3.37921L21.7699 1.23064L21.0339 2.17848ZM19.445 2.17768C19.9117 1.81369 20.5662 1.81369 21.0329 2.17768L21.7709 1.23144C20.8704 0.529103 19.6076 0.529103 18.7071 1.23144L19.445 2.17768ZM16.6761 4.32708L19.444 2.17852L18.7081 1.2306L15.9403 3.37917L16.6761 4.32708ZM9.397 4.45313H16.3082V3.25313H9.397V4.45313ZM8.08377 5.76635C8.08377 5.04105 8.67175 4.45313 9.397 4.45313V3.25313C8.00903 3.25313 6.88377 4.37828 6.88377 5.76635H8.08377ZM8.08377 10.7031V5.76635H6.88377V10.7031H8.08377ZM1.72066 15.9402L7.85187 11.177L7.11567 10.2293L0.984458 14.9926L1.72066 15.9402ZM1.82797 15.8299C1.83177 15.8246 1.82199 15.8387 1.80888 15.8547C1.79375 15.8731 1.76939 15.9003 1.73511 15.9286L0.970007 15.0042C0.930109 15.0372 0.900984 15.0694 0.881518 15.0931C0.864077 15.1144 0.850402 15.134 0.850316 15.1341L1.82797 15.8299ZM1.72216 15.9479C1.75772 15.9168 1.78364 15.8872 1.80054 15.8663C1.81576 15.8474 1.8279 15.83 1.82798 15.8299L0.850306 15.1341C0.84679 15.139 0.855337 15.1267 0.866644 15.1127C0.879637 15.0966 0.901317 15.0716 0.931991 15.0448L1.72216 15.9479ZM1.73748 15.934L1.7372 15.9343L0.916946 15.0584C0.853316 15.118 0.796296 15.1845 0.747014 15.2565L1.73748 15.934ZM1.7119 15.9676C1.71073 15.9699 1.70953 15.9716 1.70852 15.9729L0.775984 15.2176C0.725947 15.2794 0.68199 15.3465 0.6451 15.4181L1.7119 15.9676ZM1.72658 15.9385C1.72721 15.9358 1.72785 15.9341 1.72817 15.9334L0.628832 15.4523C0.598205 15.5223 0.574641 15.5941 0.55778 15.6666L1.72658 15.9385ZM1.71334 15.9868L1.71351 15.9858L0.570844 15.6193C0.544265 15.7022 0.526865 15.7874 0.518701 15.8735L1.71334 15.9868ZM1.6859 16.125C1.6861 16.1243 1.68825 16.1174 1.69051 16.1095C1.69294 16.101 1.69652 16.0879 1.70013 16.0719C1.70738 16.0397 1.71602 15.9905 1.71602 15.9301H0.516021C0.516021 15.8765 0.523709 15.8337 0.529526 15.8079C0.534626 15.7853 0.540591 15.7668 0.53852 15.7735L1.6859 16.125ZM1.68921 16.1138L1.68921 16.1138L0.535211 15.7847L0.535211 15.7847L1.68921 16.1138ZM1.7084 15.9684C1.7084 16.0221 1.70071 16.0648 1.69489 16.0906C1.68979 16.1133 1.68383 16.1318 1.6859 16.125L0.538519 15.7735C0.53832 15.7742 0.53617 15.7812 0.533912 15.7891C0.53148 15.7976 0.527896 15.8107 0.524286 15.8267C0.51704 15.8588 0.508398 15.908 0.508398 15.9684H1.7084ZM1.7084 37.6534V15.9684H0.508398V37.6534H1.7084ZM1.964 38.4207C1.79863 38.1986 1.70901 37.9291 1.7084 37.6521L0.5084 37.6547C0.509581 38.189 0.682427 38.7088 1.00149 39.1373L1.964 38.4207ZM2.04737 38.5738C2.04735 38.5738 2.04559 38.5691 2.0435 38.5638C2.04124 38.5581 2.03762 38.5492 2.03285 38.5385C2.02336 38.5173 2.00746 38.4846 1.98305 38.4478L0.982443 39.1102C0.95974 39.0759 0.945226 39.046 0.936975 39.0275C0.929599 39.0109 0.924304 38.9966 0.92582 39.0006L2.04737 38.5738ZM1.94473 38.4035C1.98793 38.4533 2.01393 38.5003 2.02844 38.5302C2.04116 38.5564 2.04963 38.5797 2.04729 38.5736L0.925898 39.0008C0.925961 39.0009 0.926703 39.0029 0.927553 39.0051C0.928467 39.0075 0.929894 39.0111 0.931678 39.0155C0.935167 39.0241 0.940962 39.0379 0.948954 39.0543C0.965051 39.0875 0.992911 39.1376 1.03856 39.1902L1.94473 38.4035ZM1.87132 38.3329C1.86763 38.3299 1.875 38.3357 1.88344 38.3428C1.88842 38.347 1.89615 38.3537 1.90536 38.3624C1.91444 38.371 1.92724 38.3837 1.94164 38.4L1.04164 39.1937C1.07055 39.2265 1.09691 39.2492 1.10757 39.2582C1.11409 39.2638 1.11957 39.2682 1.12289 39.2709C1.12607 39.2734 1.12897 39.2757 1.12947 39.2761L1.87132 38.3329ZM1.86255 38.3261L1.86251 38.326L1.13829 39.2829L1.13833 39.2829L1.86255 38.3261ZM1.95699 38.4122C1.93212 38.3847 1.90959 38.3646 1.89648 38.3534C1.88373 38.3425 1.87218 38.3335 1.87153 38.333L1.12935 39.276C1.13265 39.2786 1.12522 39.2728 1.11644 39.2653C1.10729 39.2575 1.08859 39.241 1.0671 39.2172L1.95699 38.4122ZM3.02226 38.9666C2.61676 38.9649 2.23513 38.7745 1.98974 38.4517L1.03434 39.1778C1.50552 39.7977 2.23834 40.1633 3.01711 40.1666L3.02226 38.9666ZM37.4577 38.9666H3.01968V40.1666H37.4577V38.9666ZM38.492 38.4495C38.2463 38.7741 37.8631 38.9654 37.4559 38.9666L37.4595 40.1666C38.2413 40.1643 38.9771 39.797 39.4489 39.1737L38.492 38.4495ZM38.6463 38.3051C38.6461 38.3053 38.6444 38.3064 38.6426 38.3076C38.6405 38.309 38.6375 38.3111 38.6338 38.3136C38.6266 38.3186 38.6155 38.3266 38.6025 38.3368C38.5761 38.3577 38.5391 38.3903 38.5021 38.4365L39.4388 39.1866C39.4043 39.2298 39.37 39.2598 39.3465 39.2784C39.3258 39.2947 39.3071 39.3068 39.3116 39.3038L38.6463 38.3051ZM38.4947 38.4549C38.534 38.3982 38.5758 38.3595 38.6045 38.3361C38.6294 38.3158 38.6523 38.3011 38.6466 38.305L39.3114 39.304C39.3116 39.3039 39.3134 39.3026 39.3156 39.3011C39.3179 39.2996 39.3215 39.2972 39.3257 39.2942C39.3341 39.2883 39.3473 39.2788 39.3628 39.2662C39.3945 39.2403 39.439 39.199 39.4806 39.1389L38.4947 38.4549ZM38.4994 38.4433C38.4761 38.4778 38.4602 38.5087 38.45 38.5307C38.4451 38.5412 38.4414 38.55 38.4393 38.5552C38.4382 38.5578 38.4373 38.5599 38.4368 38.561C38.4366 38.5616 38.4364 38.5621 38.4363 38.5623C38.4362 38.5627 38.4362 38.5626 38.4362 38.5625C38.4362 38.5625 38.438 38.5582 38.4403 38.5527C38.4429 38.5468 38.4467 38.5382 38.4518 38.5279C38.4569 38.5174 38.4633 38.5053 38.471 38.4921C38.4787 38.4788 38.4875 38.465 38.4976 38.4508L39.4777 39.1431C39.523 39.079 39.5456 39.0201 39.5485 39.013C39.5486 39.0126 39.5488 39.0121 39.5488 39.0121C39.5489 39.0119 39.5489 39.0121 39.5488 39.0123C39.5486 39.0127 39.548 39.0141 39.5472 39.016C39.5457 39.0197 39.5426 39.027 39.5384 39.0361C39.5295 39.0552 39.5152 39.0832 39.4939 39.1148L38.4994 38.4433ZM38.771 37.6521C38.7704 37.9291 38.6807 38.1986 38.5153 38.4208L39.4779 39.1373C39.7969 38.7088 39.9698 38.189 39.971 37.6548L38.771 37.6521ZM38.771 15.9702V37.6535H39.971V15.9702H38.771ZM38.7916 16.12C38.7936 16.1268 38.7882 16.1094 38.7836 16.0882C38.7783 16.0639 38.7712 16.0238 38.771 15.9735L39.971 15.9669C39.9706 15.9096 39.9627 15.8628 39.9559 15.8319C39.9525 15.8166 39.9492 15.804 39.9469 15.7957C39.9448 15.7881 39.9428 15.7813 39.9426 15.7806L38.7916 16.12ZM38.764 15.9619C38.7664 16.0104 38.774 16.0499 38.78 16.0759C38.7854 16.0996 38.7916 16.1198 38.7916 16.12L39.9426 15.7805C39.9409 15.7748 39.9453 15.7891 39.9493 15.8066C39.9539 15.8266 39.9604 15.8599 39.9625 15.902L38.764 15.9619ZM20.9901 2.24112C20.5488 1.89048 19.924 1.89048 19.4827 2.24112L20.2293 3.18062C20.2334 3.17731 20.2394 3.17731 20.2435 3.18062L20.9901 2.24112ZM22.456 3.37911L20.9847 2.23693L20.2489 3.18481L21.7201 4.32699L22.456 3.37911ZM18.3892 4.45305H22.088V3.25305H18.3892V4.45305ZM19.4874 2.23746L18.0205 3.37965L18.7578 4.32646L20.2246 3.18428L19.4874 2.23746ZM19.488 24.8641L2.81229 37.8173L3.54843 38.765L20.2241 25.8118L19.488 24.8641ZM20.9897 24.8679C20.5485 24.518 19.9245 24.5181 19.4833 24.8678L20.2288 25.8082C20.2334 25.8046 20.2397 25.8046 20.2441 25.8081L20.9897 24.8679ZM37.665 37.8173L20.9849 24.8641L20.2489 25.8119L36.929 38.7651L37.665 37.8173ZM3.18036 38.8912H37.297V37.6912H3.18036V38.8912ZM38.4633 36.8229L21.7699 23.8577L21.0339 24.8055L37.7273 37.7707L38.4633 36.8229ZM37.4953 16.9415V37.2968H38.6953V16.9415H37.4953ZM27.9941 25.5446L38.4633 17.4154L37.7273 16.4676L27.2582 24.5968L27.9941 25.5446ZM26.7664 25.7193C27.1795 25.8858 27.6505 25.8178 27.9994 25.5405L27.2529 24.601C27.2424 24.6093 27.228 24.6115 27.2152 24.6063L26.7664 25.7193ZM26.0025 24.7349C26.0614 25.1765 26.3531 25.5526 26.7664 25.7192L27.2152 24.6063C27.2027 24.6013 27.1938 24.5899 27.192 24.5763L26.0025 24.7349ZM26.4819 23.5849C26.1269 23.854 25.9436 24.2931 26.0025 24.7349L27.192 24.5763C27.1902 24.563 27.1958 24.5496 27.2066 24.5414L26.4819 23.5849ZM37.1119 15.3305L26.4763 23.5892L27.2123 24.537L37.8479 16.2783L37.1119 15.3305ZM32.6252 12.7916L37.1117 16.2781L37.848 15.3306L33.3615 11.844L32.6252 12.7916ZM33.5933 17.2456V12.3178H32.3933V17.2456H33.5933ZM32.3556 18.4833C33.0393 18.4833 33.5933 17.9291 33.5933 17.2456H32.3933C32.3933 17.2665 32.3764 17.2833 32.3556 17.2833V18.4833ZM31.1179 17.2456C31.1179 17.9292 31.672 18.4833 32.3556 18.4833V17.2833C32.3348 17.2833 32.3179 17.2665 32.3179 17.2456H31.1179ZM31.1179 5.76628V17.2456H32.3179V5.76628H31.1179ZM31.0802 5.72856C31.1011 5.72856 31.1179 5.74542 31.1179 5.76628H32.3179C32.3179 5.08268 31.7638 4.52856 31.0802 4.52856V5.72856ZM9.397 5.72856H31.0802V4.52856H9.397V5.72856ZM9.35928 5.76628C9.35928 5.74542 9.37614 5.72856 9.397 5.72856V4.52856C8.7134 4.52856 8.15928 5.08268 8.15928 5.76628H9.35928ZM9.35928 17.2456V5.76628H8.15928V17.2456H9.35928ZM8.12157 18.4833C8.80521 18.4833 9.35928 17.9291 9.35928 17.2456H8.15928C8.15928 17.2665 8.14238 17.2833 8.12157 17.2833V18.4833ZM6.88385 17.2456C6.88385 17.9293 7.43809 18.4833 8.12157 18.4833V17.2833C8.10074 17.2833 8.08385 17.2664 8.08385 17.2456H6.88385ZM6.88385 12.3178V17.2456H8.08385V12.3178H6.88385ZM3.3655 16.2781L7.85202 12.7916L7.11568 11.844L2.62916 15.3306L3.3655 16.2781ZM13.9824 23.5745L3.36532 15.3305L2.62935 16.2783L13.2465 24.5223L13.9824 23.5745ZM14.2019 25.3112C14.6208 24.7709 14.5225 23.9932 13.9821 23.5743L13.2468 24.5226C13.2634 24.5354 13.2664 24.5592 13.2535 24.5759L14.2019 25.3112ZM12.4649 25.5309C13.0052 25.9498 13.7829 25.8516 14.2019 25.3112L13.2535 24.5759C13.2407 24.5924 13.2169 24.5955 13.2002 24.5826L12.4649 25.5309ZM2.01389 17.4154L12.4646 25.5306L13.2006 24.5829L2.74989 16.4676L2.01389 17.4154ZM2.98189 37.2969V16.9415H1.78189V37.2969H2.98189ZM18.708 23.8577L2.01386 36.823L2.74992 37.7708L19.4441 24.8055L18.708 23.8577ZM21.7706 23.8583C20.8701 23.1566 19.6079 23.1566 18.7073 23.8583L19.4448 24.8049C19.9117 24.4411 20.5662 24.4411 21.0331 24.8049L21.7706 23.8583ZM20.2401 7.58481C19.349 7.58481 18.6266 8.30721 18.6266 9.19832H19.8266C19.8266 8.96995 20.0117 8.78481 20.2401 8.78481V7.58481ZM21.8536 9.19832C21.8536 8.30721 21.1312 7.58481 20.2401 7.58481V8.78481C20.4684 8.78481 20.6536 8.96995 20.6536 9.19832H21.8536ZM21.8536 15.3684V9.19832H20.6536V15.3684H21.8536ZM20.2401 16.9819C21.1312 16.9819 21.8536 16.2595 21.8536 15.3684H20.6536C20.6536 15.5967 20.4684 15.7819 20.2401 15.7819V16.9819ZM18.6266 15.3684C18.6266 16.2595 19.349 16.9819 20.2401 16.9819V15.7819C20.0117 15.7819 19.8266 15.5967 19.8266 15.3684H18.6266ZM18.6266 9.19832V15.3684H19.8266V9.19832H18.6266ZM19.8266 19.426C19.8266 19.2022 20.011 19.0158 20.2403 19.0158V17.8158C19.3538 17.8158 18.6266 18.5339 18.6266 19.426H19.8266ZM20.2403 19.8361C20.011 19.8361 19.8266 19.6497 19.8266 19.426H18.6266C18.6266 20.318 19.3538 21.0361 20.2403 21.0361V19.8361ZM20.654 19.426C20.654 19.6497 20.4695 19.8361 20.2403 19.8361V21.0361C21.1267 21.0361 21.854 20.318 21.854 19.426H20.654ZM20.2403 19.0158C20.4695 19.0158 20.654 19.2022 20.654 19.426H21.854C21.854 18.5339 21.1267 17.8158 20.2403 17.8158V19.0158Z" fill="#526DB4"/>
</svg>
