<svg width="44" height="45" viewBox="0 0 44 45" fill="none" xmlns="http://www.w3.org/2000/svg">
<mask id="path-1-outside-1_924_197" maskUnits="userSpaceOnUse" x="0" y="0.181641" width="44" height="44" fill="black">
<rect fill="white" y="0.181641" width="44" height="44"/>
<path fill-rule="evenodd" clip-rule="evenodd" d="M42.5908 21.1718C42.5298 21.1805 42.4687 21.1892 42.4077 21.1892C41.8933 21.1892 41.4399 20.823 41.3527 20.2999C40.629 16.0536 38.6236 12.1823 35.5457 9.1044C32.4678 6.02652 28.5965 4.0211 24.3502 3.2974C23.7748 3.20149 23.3824 2.65218 23.4783 2.06799C23.5742 1.49253 24.1235 1.10016 24.7077 1.19607C29.3986 1.98952 33.6623 4.2042 37.0628 7.59597C40.4546 10.9877 42.6693 15.2514 43.4627 19.9424C43.5674 20.5178 43.175 21.0759 42.5908 21.1718ZM31.099 43.6935L31.1227 43.6946C31.306 43.7029 31.4818 43.7109 31.6657 43.7109C33.7147 43.7109 35.4237 42.9698 36.7665 41.5137L36.8013 41.4788C37.2809 40.9034 37.8215 40.3802 38.3969 39.8309C38.7893 39.456 39.1904 39.0723 39.5653 38.6712C41.3528 36.8053 41.344 34.4424 39.5479 32.6463L34.5779 27.6763C33.7234 26.787 32.7033 26.3161 31.6221 26.3161C30.5497 26.3161 29.5208 26.7782 28.6402 27.6589L25.7018 30.5972C25.4836 30.4736 25.2594 30.3621 25.0393 30.2527L24.9083 30.1874C24.577 30.0218 24.2718 29.8648 24.0015 29.6992C21.3073 27.9902 18.8659 25.7581 16.5292 22.8895C15.3521 21.4072 14.5761 20.1691 14.0268 18.8961C14.7941 18.1985 15.509 17.4748 16.1978 16.7686C16.3231 16.6433 16.4485 16.5158 16.5748 16.3873L16.575 16.3871C16.7036 16.2564 16.8332 16.1245 16.9651 15.9926C18.831 14.1267 18.831 11.8161 16.9651 9.95888L14.4976 7.49135C14.3526 7.34637 14.2099 7.20139 14.0682 7.05753L14.0681 7.05747C13.9287 6.91583 13.7902 6.77527 13.6518 6.63686L13.4516 6.43316C12.9653 5.93826 12.4671 5.4313 11.969 4.97149C11.1145 4.11701 10.1031 3.67233 9.03065 3.67233C7.96691 3.67233 6.93804 4.11701 6.04868 4.97149L2.95336 8.05809C1.81987 9.19159 1.17465 10.5692 1.03514 12.1648C0.878192 14.1528 1.2444 16.2629 2.18607 18.8089C3.64218 22.7412 5.8307 26.3946 9.07425 30.3008C13.0241 35.0092 17.7673 38.7323 23.1906 41.3568C25.2571 42.342 28.0211 43.493 31.099 43.6935ZM10.7222 28.9319C7.63558 25.2175 5.56913 21.7647 4.20021 18.0677C3.35445 15.792 3.04056 14.022 3.17134 12.3392C3.26726 11.2493 3.68578 10.3425 4.47051 9.56652L7.54839 6.48864C8.01922 6.03524 8.53366 5.79982 9.03937 5.79982C9.53637 5.79982 10.0246 6.03524 10.4955 6.49736C11.0397 7.00705 11.5669 7.54242 12.1193 8.10347L12.1193 8.10349L12.1347 8.11913C12.4137 8.40686 12.7014 8.70332 12.9979 8.99105L15.4654 11.4586C16.4769 12.47 16.4769 13.464 15.4654 14.4754C15.2039 14.737 14.9423 14.9986 14.6894 15.2602L14.5029 15.4489L14.5028 15.449C13.8051 16.1554 13.1425 16.8261 12.4137 17.4748L12.3701 17.5184C11.6639 18.2247 11.7685 18.9048 11.9429 19.4105C11.9472 19.4236 11.9516 19.4345 11.9559 19.4454C11.9603 19.4563 11.9647 19.4672 11.969 19.4803C12.6055 21.0148 13.5036 22.4709 14.8812 24.2148C17.3662 27.2752 19.982 29.6556 22.8768 31.4953C23.2342 31.722 23.6092 31.9139 23.9754 32.097C24.3067 32.2626 24.6119 32.4196 24.8822 32.5852C24.8996 32.5939 24.9149 32.6027 24.9301 32.6114C24.9399 32.617 24.9497 32.6226 24.9601 32.6282C24.9658 32.6313 24.9718 32.6344 24.9781 32.6375C25.2571 32.7771 25.5274 32.8468 25.8064 32.8468C26.4952 32.8468 26.9312 32.4108 27.0707 32.2626L30.166 29.1673C30.6369 28.6965 31.1426 28.4523 31.6396 28.4523C32.2499 28.4523 32.7469 28.836 33.0695 29.1673L38.0569 34.1547C39.2776 35.3754 38.7196 36.474 38.0307 37.1977C37.7433 37.5067 37.444 37.7979 37.1329 38.1006L37.1327 38.1008C37.0664 38.1654 36.9995 38.2304 36.9321 38.2963C36.3479 38.8543 35.7463 39.4385 35.197 40.0925C34.2553 41.1039 33.1393 41.5747 31.6832 41.5747C31.5437 41.5747 31.3954 41.566 31.2559 41.5573C28.5442 41.3829 26.0331 40.3279 24.141 39.4298C18.9793 36.9448 14.4714 33.4136 10.7222 28.9319ZM24.3503 8.96487C23.7661 8.86896 23.2168 9.26133 23.1209 9.83679C23.025 10.421 23.4173 10.9703 23.9928 11.0662C26.3906 11.476 28.5704 12.6095 30.3142 14.3446C32.0493 16.0797 33.1828 18.2683 33.5926 20.6661C33.6798 21.1892 34.1332 21.5554 34.6477 21.5554C34.7087 21.5554 34.7697 21.5467 34.8308 21.538C35.415 21.4421 35.8073 20.884 35.7027 20.3086C35.2231 17.4748 33.8804 14.8852 31.8314 12.8362C29.7649 10.7785 27.184 9.44443 24.3503 8.96487Z"/>
</mask>
<path fill-rule="evenodd" clip-rule="evenodd" d="M42.5908 21.1718C42.5298 21.1805 42.4687 21.1892 42.4077 21.1892C41.8933 21.1892 41.4399 20.823 41.3527 20.2999C40.629 16.0536 38.6236 12.1823 35.5457 9.1044C32.4678 6.02652 28.5965 4.0211 24.3502 3.2974C23.7748 3.20149 23.3824 2.65218 23.4783 2.06799C23.5742 1.49253 24.1235 1.10016 24.7077 1.19607C29.3986 1.98952 33.6623 4.2042 37.0628 7.59597C40.4546 10.9877 42.6693 15.2514 43.4627 19.9424C43.5674 20.5178 43.175 21.0759 42.5908 21.1718ZM31.099 43.6935L31.1227 43.6946C31.306 43.7029 31.4818 43.7109 31.6657 43.7109C33.7147 43.7109 35.4237 42.9698 36.7665 41.5137L36.8013 41.4788C37.2809 40.9034 37.8215 40.3802 38.3969 39.8309C38.7893 39.456 39.1904 39.0723 39.5653 38.6712C41.3528 36.8053 41.344 34.4424 39.5479 32.6463L34.5779 27.6763C33.7234 26.787 32.7033 26.3161 31.6221 26.3161C30.5497 26.3161 29.5208 26.7782 28.6402 27.6589L25.7018 30.5972C25.4836 30.4736 25.2594 30.3621 25.0393 30.2527L24.9083 30.1874C24.577 30.0218 24.2718 29.8648 24.0015 29.6992C21.3073 27.9902 18.8659 25.7581 16.5292 22.8895C15.3521 21.4072 14.5761 20.1691 14.0268 18.8961C14.7941 18.1985 15.509 17.4748 16.1978 16.7686C16.3231 16.6433 16.4485 16.5158 16.5748 16.3873L16.575 16.3871C16.7036 16.2564 16.8332 16.1245 16.9651 15.9926C18.831 14.1267 18.831 11.8161 16.9651 9.95888L14.4976 7.49135C14.3526 7.34637 14.2099 7.20139 14.0682 7.05753L14.0681 7.05747C13.9287 6.91583 13.7902 6.77527 13.6518 6.63686L13.4516 6.43316C12.9653 5.93826 12.4671 5.4313 11.969 4.97149C11.1145 4.11701 10.1031 3.67233 9.03065 3.67233C7.96691 3.67233 6.93804 4.11701 6.04868 4.97149L2.95336 8.05809C1.81987 9.19159 1.17465 10.5692 1.03514 12.1648C0.878192 14.1528 1.2444 16.2629 2.18607 18.8089C3.64218 22.7412 5.8307 26.3946 9.07425 30.3008C13.0241 35.0092 17.7673 38.7323 23.1906 41.3568C25.2571 42.342 28.0211 43.493 31.099 43.6935ZM10.7222 28.9319C7.63558 25.2175 5.56913 21.7647 4.20021 18.0677C3.35445 15.792 3.04056 14.022 3.17134 12.3392C3.26726 11.2493 3.68578 10.3425 4.47051 9.56652L7.54839 6.48864C8.01922 6.03524 8.53366 5.79982 9.03937 5.79982C9.53637 5.79982 10.0246 6.03524 10.4955 6.49736C11.0397 7.00705 11.5669 7.54242 12.1193 8.10347L12.1193 8.10349L12.1347 8.11913C12.4137 8.40686 12.7014 8.70332 12.9979 8.99105L15.4654 11.4586C16.4769 12.47 16.4769 13.464 15.4654 14.4754C15.2039 14.737 14.9423 14.9986 14.6894 15.2602L14.5029 15.4489L14.5028 15.449C13.8051 16.1554 13.1425 16.8261 12.4137 17.4748L12.3701 17.5184C11.6639 18.2247 11.7685 18.9048 11.9429 19.4105C11.9472 19.4236 11.9516 19.4345 11.9559 19.4454C11.9603 19.4563 11.9647 19.4672 11.969 19.4803C12.6055 21.0148 13.5036 22.4709 14.8812 24.2148C17.3662 27.2752 19.982 29.6556 22.8768 31.4953C23.2342 31.722 23.6092 31.9139 23.9754 32.097C24.3067 32.2626 24.6119 32.4196 24.8822 32.5852C24.8996 32.5939 24.9149 32.6027 24.9301 32.6114C24.9399 32.617 24.9497 32.6226 24.9601 32.6282C24.9658 32.6313 24.9718 32.6344 24.9781 32.6375C25.2571 32.7771 25.5274 32.8468 25.8064 32.8468C26.4952 32.8468 26.9312 32.4108 27.0707 32.2626L30.166 29.1673C30.6369 28.6965 31.1426 28.4523 31.6396 28.4523C32.2499 28.4523 32.7469 28.836 33.0695 29.1673L38.0569 34.1547C39.2776 35.3754 38.7196 36.474 38.0307 37.1977C37.7433 37.5067 37.444 37.7979 37.1329 38.1006L37.1327 38.1008C37.0664 38.1654 36.9995 38.2304 36.9321 38.2963C36.3479 38.8543 35.7463 39.4385 35.197 40.0925C34.2553 41.1039 33.1393 41.5747 31.6832 41.5747C31.5437 41.5747 31.3954 41.566 31.2559 41.5573C28.5442 41.3829 26.0331 40.3279 24.141 39.4298C18.9793 36.9448 14.4714 33.4136 10.7222 28.9319ZM24.3503 8.96487C23.7661 8.86896 23.2168 9.26133 23.1209 9.83679C23.025 10.421 23.4173 10.9703 23.9928 11.0662C26.3906 11.476 28.5704 12.6095 30.3142 14.3446C32.0493 16.0797 33.1828 18.2683 33.5926 20.6661C33.6798 21.1892 34.1332 21.5554 34.6477 21.5554C34.7087 21.5554 34.7697 21.5467 34.8308 21.538C35.415 21.4421 35.8073 20.884 35.7027 20.3086C35.2231 17.4748 33.8804 14.8852 31.8314 12.8362C29.7649 10.7785 27.184 9.44443 24.3503 8.96487Z" fill="#526DB4"/>
<path d="M42.5908 21.1718L42.6474 21.5679L42.6556 21.5665L42.5908 21.1718ZM41.3527 20.2999L41.7472 20.2341L41.747 20.2327L41.3527 20.2999ZM35.5457 9.1044L35.8285 8.82155L35.5457 9.1044ZM24.3502 3.2974L24.4174 2.90309L24.416 2.90285L24.3502 3.2974ZM23.4783 2.06799L23.0837 2.00224L23.0836 2.00319L23.4783 2.06799ZM24.7077 1.19607L24.7744 0.801671L24.7725 0.801358L24.7077 1.19607ZM37.0628 7.59597L37.3457 7.31313L37.3453 7.31277L37.0628 7.59597ZM43.4627 19.9424L43.0683 20.0091L43.0692 20.0139L43.4627 19.9424ZM31.1227 43.6946L31.1045 44.0942H31.1045L31.1227 43.6946ZM31.099 43.6935L31.073 44.0927L31.0808 44.0931L31.099 43.6935ZM36.7665 41.5137L36.4836 41.2309L36.4779 41.2366L36.4724 41.2425L36.7665 41.5137ZM36.8013 41.4788L37.0842 41.7617L37.097 41.7488L37.1086 41.7349L36.8013 41.4788ZM38.3969 39.8309L38.6731 40.1202L38.6733 40.1201L38.3969 39.8309ZM39.5653 38.6712L39.2765 38.3945L39.2731 38.3981L39.5653 38.6712ZM39.5479 32.6463L39.265 32.9291L39.5479 32.6463ZM34.5779 27.6763L34.2894 27.9535L34.2951 27.9592L34.5779 27.6763ZM28.6402 27.6589L28.3573 27.376L28.6402 27.6589ZM25.7018 30.5972L25.5046 30.9453L25.7694 31.0953L25.9846 30.8801L25.7018 30.5972ZM25.0393 30.2527L24.8609 30.6107L24.8612 30.6108L25.0393 30.2527ZM24.9083 30.1874L24.7294 30.5452L24.73 30.5455L24.9083 30.1874ZM24.0015 29.6992L23.7873 30.037L23.7925 30.0402L24.0015 29.6992ZM16.5292 22.8895L16.2159 23.1382L16.219 23.1421L16.5292 22.8895ZM14.0268 18.8961L13.7577 18.6001L13.5463 18.7923L13.6595 19.0546L14.0268 18.8961ZM16.1978 16.7686L15.915 16.4857L15.9115 16.4893L16.1978 16.7686ZM16.5748 16.3873L16.2897 16.1067L16.2896 16.1069L16.5748 16.3873ZM16.575 16.3871L16.8601 16.6677L16.8602 16.6676L16.575 16.3871ZM16.9651 15.9926L16.6823 15.7097L16.9651 15.9926ZM16.9651 9.95888L16.6823 10.2417L16.683 10.2424L16.9651 9.95888ZM14.4976 7.49135L14.7804 7.2085V7.2085L14.4976 7.49135ZM14.0682 7.05753L13.7819 7.33686L13.7832 7.33819L14.0682 7.05753ZM14.0681 7.05747L14.3544 6.77814L14.3531 6.77681L14.0681 7.05747ZM13.6518 6.63686L13.3666 6.91731L13.369 6.91971L13.6518 6.63686ZM13.4516 6.43316L13.1662 6.71351L13.1663 6.7136L13.4516 6.43316ZM11.969 4.97149L11.6862 5.25434L11.6918 5.25999L11.6977 5.26542L11.969 4.97149ZM6.04868 4.97149L5.7715 4.683L5.76624 4.68825L6.04868 4.97149ZM2.95336 8.05809L2.67092 7.77485L2.67052 7.77525L2.95336 8.05809ZM1.03514 12.1648L0.636644 12.13L0.636379 12.1334L1.03514 12.1648ZM2.18607 18.8089L1.81091 18.9476L1.81096 18.9478L2.18607 18.8089ZM9.07425 30.3008L8.76651 30.5563L8.7678 30.5579L9.07425 30.3008ZM23.1906 41.3568L23.0164 41.7168L23.0185 41.7178L23.1906 41.3568ZM4.20021 18.0677L4.57532 17.9289L4.57515 17.9284L4.20021 18.0677ZM10.7222 28.9319L10.4145 29.1875L10.4154 29.1885L10.7222 28.9319ZM3.17134 12.3392L2.77286 12.3042L2.77255 12.3082L3.17134 12.3392ZM4.47051 9.56652L4.75177 9.85094L4.75335 9.84936L4.47051 9.56652ZM7.54839 6.48864L7.27088 6.20046L7.26554 6.20579L7.54839 6.48864ZM10.4955 6.49736L10.2152 6.78291L10.2221 6.78932L10.4955 6.49736ZM12.1193 8.10347L12.4153 7.8344L12.4099 7.82851L12.4043 7.82283L12.1193 8.10347ZM12.1193 8.10349L11.8233 8.37256L11.8287 8.37845L11.8343 8.38413L12.1193 8.10349ZM12.1347 8.11913L12.4219 7.84066L12.4197 7.83849L12.1347 8.11913ZM12.9979 8.99105L13.2808 8.70818L13.2765 8.70402L12.9979 8.99105ZM14.6894 15.2602L14.974 15.5413L14.977 15.5382L14.6894 15.2602ZM14.5029 15.4489L14.7857 15.7318L14.7874 15.7301L14.5029 15.4489ZM14.5028 15.449L14.22 15.1662L14.2183 15.1679L14.5028 15.449ZM12.4137 17.4748L12.1478 17.1761L12.1391 17.1838L12.1309 17.192L12.4137 17.4748ZM12.3701 17.5184L12.653 17.8013L12.653 17.8013L12.3701 17.5184ZM11.9429 19.4105L12.3224 19.284L12.321 19.2801L11.9429 19.4105ZM11.9559 19.4454L11.5846 19.5939L11.5846 19.594L11.9559 19.4454ZM11.969 19.4803L11.5895 19.6067L11.5941 19.6203L11.5995 19.6335L11.969 19.4803ZM14.8812 24.2148L14.5673 24.4628L14.5707 24.4669L14.8812 24.2148ZM22.8768 31.4953L22.6622 31.8329L22.6625 31.8331L22.8768 31.4953ZM23.9754 32.097L24.1543 31.7392L24.1543 31.7392L23.9754 32.097ZM24.8822 32.5852L24.6732 32.9263L24.6879 32.9353L24.7033 32.943L24.8822 32.5852ZM24.9301 32.6114L25.1286 32.2641L25.1286 32.2641L24.9301 32.6114ZM24.9601 32.6282L25.1501 32.2762L25.15 32.2761L24.9601 32.6282ZM24.9781 32.6375L24.7992 32.9953L24.7992 32.9953L24.9781 32.6375ZM27.0707 32.2626L26.7877 31.9796L26.7794 31.9885L27.0707 32.2626ZM30.166 29.1673L30.4489 29.4501H30.4489L30.166 29.1673ZM33.0695 29.1673L32.7829 29.4464L32.7867 29.4501L33.0695 29.1673ZM38.0569 34.1547L37.7741 34.4375L38.0569 34.1547ZM38.0307 37.1977L37.741 36.9219L37.7379 36.9252L38.0307 37.1977ZM37.1329 38.1006L37.4071 38.3919L37.4119 38.3873L37.1329 38.1006ZM37.1327 38.1008L36.8586 37.8095L36.8538 37.8141L37.1327 38.1008ZM36.9321 38.2963L37.2084 38.5856L37.2117 38.5824L36.9321 38.2963ZM35.197 40.0925L35.4898 40.365L35.4967 40.3576L35.5033 40.3497L35.197 40.0925ZM31.2559 41.5573L31.2302 41.9565L31.231 41.9565L31.2559 41.5573ZM24.141 39.4298L23.9675 39.7902L23.9695 39.7912L24.141 39.4298ZM23.1209 9.83679L22.7263 9.77103L22.7262 9.77199L23.1209 9.83679ZM24.3503 8.96487L24.417 8.57048L24.4151 8.57016L24.3503 8.96487ZM23.9928 11.0662L24.0602 10.6719L24.0586 10.6716L23.9928 11.0662ZM30.3142 14.3446L30.5971 14.0618L30.5964 14.0611L30.3142 14.3446ZM33.5926 20.6661L33.9872 20.6003L33.9869 20.5987L33.5926 20.6661ZM34.8308 21.538L34.8874 21.934L34.8956 21.9327L34.8308 21.538ZM35.7027 20.3086L35.3083 20.3753L35.3091 20.3801L35.7027 20.3086ZM31.8314 12.8362L32.1142 12.5534L32.1136 12.5528L31.8314 12.8362ZM42.4077 21.5892C42.502 21.5892 42.5913 21.5758 42.6474 21.5678L42.5342 20.7758C42.4682 20.7852 42.4355 20.7892 42.4077 20.7892V21.5892ZM40.9581 20.3656C41.0784 21.0876 41.7038 21.5892 42.4077 21.5892V20.7892C42.0827 20.7892 41.8013 20.5584 41.7472 20.2341L40.9581 20.3656ZM35.2628 9.38724C38.2826 12.407 40.2487 16.2032 40.9584 20.3671L41.747 20.2327C41.0093 15.904 38.9645 11.9575 35.8285 8.82155L35.2628 9.38724ZM24.283 3.69172C28.4469 4.40137 32.2431 6.36746 35.2628 9.38724L35.8285 8.82155C32.6925 5.68557 28.7461 3.64082 24.4174 2.90309L24.283 3.69172ZM23.0836 2.00319C22.9524 2.80237 23.4888 3.55936 24.2845 3.69196L24.416 2.90285C24.0607 2.84363 23.8124 2.50199 23.873 2.1328L23.0836 2.00319ZM24.7725 0.801358C23.9733 0.67015 23.2163 1.20661 23.0837 2.00224L23.8729 2.13375C23.9321 1.77844 24.2737 1.53018 24.6429 1.59079L24.7725 0.801358ZM37.3453 7.31277C33.8871 3.86343 29.5484 1.60917 24.7744 0.801676L24.641 1.59047C29.2489 2.36988 33.4376 4.54498 36.7803 7.87918L37.3453 7.31277ZM43.8571 19.8757C43.0496 15.1018 40.7954 10.7628 37.3457 7.31313L36.78 7.87882C40.1138 11.2127 42.2889 15.4011 43.0683 20.0091L43.8571 19.8757ZM42.6556 21.5665C43.4593 21.4345 44.0011 20.6674 43.8563 19.8708L43.0692 20.0139C43.1336 20.3683 42.8907 20.7172 42.526 20.7771L42.6556 21.5665ZM31.141 43.295L31.1172 43.2939L31.0808 44.0931L31.1045 44.0942L31.141 43.295ZM31.6657 43.3109C31.4924 43.3109 31.3255 43.3034 31.1409 43.295L31.1045 44.0942C31.2864 44.1025 31.4713 44.1109 31.6657 44.1109V43.3109ZM36.4724 41.2425C35.2076 42.6141 33.6063 43.3109 31.6657 43.3109V44.1109C33.8232 44.1109 35.6398 43.3255 37.0605 41.7849L36.4724 41.2425ZM36.5185 41.196L36.4836 41.2309L37.0493 41.7965L37.0842 41.7617L36.5185 41.196ZM38.1208 39.5415C37.5464 40.0898 36.9901 40.6275 36.494 41.2227L37.1086 41.7349C37.5717 41.1792 38.0965 40.6706 38.6731 40.1202L38.1208 39.5415ZM39.2731 38.3981C38.9071 38.7896 38.5142 39.1656 38.1206 39.5417L38.6733 40.1201C39.0644 39.7463 39.4737 39.355 39.8575 38.9444L39.2731 38.3981ZM39.265 32.9291C40.0998 33.7638 40.4976 34.706 40.5005 35.6338C40.5033 36.5624 40.1107 37.5236 39.2765 38.3945L39.8542 38.9479C40.8074 37.9529 41.3041 36.7997 41.3004 35.6313C41.2968 34.4622 40.7922 33.3249 39.8307 32.3634L39.265 32.9291ZM34.2951 27.9592L39.265 32.9291L39.8307 32.3634L34.8608 27.3935L34.2951 27.9592ZM31.6221 26.7161C32.5783 26.7161 33.4984 27.1301 34.2895 27.9534L34.8664 27.3992C33.9485 26.4438 32.8283 25.9161 31.6221 25.9161V26.7161ZM28.923 27.9417C29.7414 27.1233 30.6725 26.7161 31.6221 26.7161V25.9161C30.4268 25.9161 29.3002 26.4331 28.3573 27.376L28.923 27.9417ZM25.9846 30.8801L28.923 27.9417L28.3573 27.376L25.4189 30.3144L25.9846 30.8801ZM24.8612 30.6108C25.0829 30.7211 25.2974 30.8279 25.5046 30.9453L25.899 30.2492C25.6699 30.1194 25.436 30.0032 25.2174 29.8945L24.8612 30.6108ZM24.73 30.5455L24.8609 30.6107L25.2176 29.8946L25.0867 29.8294L24.73 30.5455ZM23.7925 30.0402C24.079 30.2158 24.3979 30.3794 24.7294 30.5452L25.0872 29.8297C24.7561 29.6641 24.4647 29.5139 24.2106 29.3581L23.7925 30.0402ZM16.219 23.1421C18.5783 26.0383 21.0509 28.3013 23.7873 30.037L24.2158 29.3614C21.5637 27.6791 19.1536 25.4779 16.8393 22.6368L16.219 23.1421ZM13.6595 19.0546C14.2268 20.3693 15.0243 21.6377 16.2159 23.1382L16.8424 22.6407C15.6798 21.1767 14.9253 19.9689 14.394 18.7376L13.6595 19.0546ZM15.9115 16.4893C15.2232 17.195 14.5154 17.9113 13.7577 18.6001L14.2958 19.192C15.0727 18.4858 15.7949 17.7547 16.4842 17.0479L15.9115 16.4893ZM16.2896 16.1069C16.163 16.2356 16.0389 16.3618 15.915 16.4857L16.4807 17.0514C16.6074 16.9247 16.7339 16.7961 16.86 16.6677L16.2896 16.1069ZM16.2899 16.1066L16.2897 16.1067L16.8599 16.6679L16.8601 16.6677L16.2899 16.1066ZM16.6823 15.7097C16.549 15.843 16.4182 15.9761 16.2898 16.1067L16.8602 16.6676C16.989 16.5366 17.1175 16.4059 17.248 16.2754L16.6823 15.7097ZM16.683 10.2424C17.5565 11.1118 17.9646 12.0564 17.9646 12.9725C17.9646 13.8886 17.5563 14.8357 16.6823 15.7097L17.248 16.2754C18.2399 15.2835 18.7646 14.1423 18.7646 12.9725C18.7646 11.8024 18.2397 10.6631 17.2473 9.67538L16.683 10.2424ZM14.2148 7.77419L16.6823 10.2417L17.248 9.67604L14.7804 7.2085L14.2148 7.77419ZM13.7832 7.33819C13.9247 7.48187 14.0685 7.62794 14.2148 7.77419L14.7804 7.2085C14.6367 7.06479 14.495 6.92091 14.3532 6.77687L13.7832 7.33819ZM13.7818 7.3368L13.7819 7.33686L14.3545 6.7782L14.3544 6.77814L13.7818 7.3368ZM13.369 6.91971C13.5061 7.05685 13.6435 7.1963 13.7831 7.33813L14.3531 6.77681C14.2139 6.63536 14.0744 6.4937 13.9347 6.35402L13.369 6.91971ZM13.1663 6.7136L13.3666 6.9173L13.9371 6.35643L13.7368 6.15273L13.1663 6.7136ZM11.6977 5.26542C12.1874 5.71744 12.6786 6.21724 13.1662 6.71351L13.7369 6.15282C13.2519 5.65928 12.7469 5.14516 12.2403 4.67757L11.6977 5.26542ZM9.03065 4.07233C9.98409 4.07233 10.897 4.46519 11.6862 5.25434L12.2519 4.68865C11.332 3.76883 10.2221 3.27233 9.03065 3.27233V4.07233ZM6.32581 5.25994C7.15243 4.46574 8.08546 4.07233 9.03065 4.07233V3.27233C7.84836 3.27233 6.72366 3.76828 5.77155 4.68305L6.32581 5.25994ZM3.23581 8.34134L6.33113 5.25474L5.76624 4.68825L2.67092 7.77485L3.23581 8.34134ZM1.43362 12.1997C1.56489 10.6983 2.16884 9.40831 3.23621 8.34094L2.67052 7.77525C1.4709 8.97488 0.784403 10.4402 0.636658 12.13L1.43362 12.1997ZM2.56124 18.6701C1.63276 16.1598 1.28286 14.1095 1.4339 12.1963L0.636379 12.1334C0.473528 14.1961 0.856037 16.3659 1.81091 18.9476L2.56124 18.6701ZM9.38199 30.0453C6.1615 26.1668 3.99871 22.5522 2.56118 18.67L1.81096 18.9478C3.28566 22.9303 5.49991 26.6224 8.76651 30.5563L9.38199 30.0453ZM23.3649 40.9967C17.9938 38.3975 13.2952 34.71 9.3807 30.0437L8.7678 30.5579C12.7529 35.3083 17.5408 39.067 23.0164 41.7168L23.3649 40.9967ZM31.125 43.2943C28.1255 43.0989 25.4179 41.9756 23.3628 40.9957L23.0185 41.7178C25.0963 42.7085 27.9166 43.887 31.073 44.0927L31.125 43.2943ZM3.8251 18.2066C5.21266 21.9539 7.30492 25.4454 10.4145 29.1875L11.0298 28.6762C7.96624 24.9895 5.92559 21.5754 4.57532 17.9289L3.8251 18.2066ZM2.77255 12.3082C2.63579 14.0678 2.96716 15.8982 3.82527 18.2071L4.57515 17.9284C3.74174 15.6859 3.44532 13.9763 3.57014 12.3702L2.77255 12.3082ZM4.18925 9.2821C3.3361 10.1258 2.87697 11.1214 2.77288 12.3042L3.5698 12.3743C3.65754 11.3773 4.03546 10.5593 4.75176 9.85094L4.18925 9.2821ZM7.26554 6.20579L4.18766 9.28368L4.75335 9.84936L7.83123 6.77148L7.26554 6.20579ZM9.03937 5.39982C8.40394 5.39982 7.79497 5.69588 7.27093 6.20051L7.82584 6.77677C8.24348 6.3746 8.66338 6.19982 9.03937 6.19982V5.39982ZM10.7757 6.21188C10.2562 5.70204 9.67285 5.39982 9.03937 5.39982V6.19982C9.39988 6.19982 9.79308 6.36844 10.2153 6.78283L10.7757 6.21188ZM12.4043 7.82283C11.8529 7.26285 11.3201 6.72159 10.7689 6.2054L10.2221 6.78932C10.7594 7.29251 11.2808 7.822 11.8342 8.38411L12.4043 7.82283ZM12.4153 7.83442L12.4153 7.8344L11.8233 8.37254L11.8233 8.37256L12.4153 7.83442ZM12.4197 7.83849L12.4043 7.82285L11.8343 8.38413L11.8497 8.39977L12.4197 7.83849ZM13.2765 8.70402C12.985 8.42115 12.7014 8.12897 12.4219 7.84067L11.8475 8.39759C12.126 8.68476 12.4178 8.98548 12.7193 9.27808L13.2765 8.70402ZM15.7483 11.1757L13.2807 8.70821L12.7151 9.27389L15.1826 11.7414L15.7483 11.1757ZM15.7483 14.7583C16.2963 14.2102 16.624 13.6131 16.624 12.967C16.624 12.3209 16.2963 11.7238 15.7483 11.1757L15.1826 11.7414C15.6459 12.2048 15.824 12.6104 15.824 12.967C15.824 13.3236 15.6459 13.7292 15.1826 14.1926L15.7483 14.7583ZM14.977 15.5382C15.2271 15.2794 15.4863 15.0203 15.7483 14.7583L15.1826 14.1926C14.9214 14.4537 14.6574 14.7177 14.4018 14.9822L14.977 15.5382ZM14.7874 15.7301L14.9739 15.5413L14.4049 14.979L14.2184 15.1678L14.7874 15.7301ZM14.7857 15.7318L14.7857 15.7318L14.22 15.1661L14.22 15.1662L14.7857 15.7318ZM12.6797 17.7736C13.4196 17.115 14.0911 16.435 14.7874 15.7301L14.2183 15.1679C13.5191 15.8757 12.8654 16.5373 12.1478 17.1761L12.6797 17.7736ZM12.653 17.8013L12.6966 17.7577L12.1309 17.192L12.0873 17.2356L12.653 17.8013ZM12.321 19.2801C12.2429 19.0535 12.1937 18.8241 12.2231 18.5895C12.2514 18.3641 12.3567 18.0975 12.653 17.8013L12.0873 17.2356C11.6772 17.6456 11.4818 18.0722 11.4294 18.4899C11.3781 18.8983 11.4685 19.2618 11.5647 19.5409L12.321 19.2801ZM12.3273 19.2968C12.3228 19.2854 12.3225 19.2846 12.3223 19.284L11.5634 19.537C11.5719 19.5626 11.5804 19.5835 11.5846 19.5939L12.3273 19.2968ZM12.3485 19.3538C12.34 19.3282 12.3315 19.3073 12.3273 19.2968L11.5846 19.594C11.5891 19.6053 11.5894 19.6062 11.5895 19.6067L12.3485 19.3538ZM15.1951 23.9668C13.8328 22.2424 12.9569 20.818 12.3385 19.327L11.5995 19.6335C12.2541 21.2117 13.1744 22.6995 14.5674 24.4627L15.1951 23.9668ZM23.0913 31.1577C20.2378 29.3442 17.6535 26.9944 15.1918 23.9627L14.5707 24.4669C17.079 27.556 19.7262 29.9669 22.6622 31.8329L23.0913 31.1577ZM24.1543 31.7392C23.7884 31.5563 23.4297 31.3723 23.091 31.1575L22.6625 31.8331C23.0388 32.0717 23.4299 32.2714 23.7965 32.4547L24.1543 31.7392ZM25.0912 32.2442C24.8047 32.0686 24.4858 31.9049 24.1543 31.7392L23.7965 32.4547C24.1276 32.6203 24.419 32.7705 24.6732 32.9263L25.0912 32.2442ZM25.1286 32.2641C25.1142 32.2559 25.0898 32.2418 25.0611 32.2275L24.7033 32.943C24.7094 32.9461 24.7156 32.9495 24.7317 32.9587L25.1286 32.2641ZM25.15 32.2761C25.1446 32.2732 25.1389 32.27 25.1286 32.2641L24.7317 32.9587C24.7409 32.9639 24.7548 32.9719 24.7701 32.9802L25.15 32.2761ZM25.157 32.2798C25.1551 32.2788 25.1528 32.2776 25.1501 32.2762L24.77 32.9801C24.7789 32.9849 24.7886 32.99 24.7992 32.9953L25.157 32.2798ZM25.8064 32.4468C25.5984 32.4468 25.389 32.3958 25.157 32.2798L24.7992 32.9953C25.1252 33.1583 25.4564 33.2468 25.8064 33.2468V32.4468ZM26.7794 31.9885C26.6548 32.1209 26.3199 32.4468 25.8064 32.4468V33.2468C26.6705 33.2468 27.2076 32.7008 27.362 32.5368L26.7794 31.9885ZM29.8832 28.8845L26.7879 31.9798L27.3535 32.5455L30.4489 29.4501L29.8832 28.8845ZM31.6396 28.0523C31.0051 28.0523 30.4035 28.3642 29.8832 28.8845L30.4489 29.4501C30.8702 29.0287 31.28 28.8523 31.6396 28.8523V28.0523ZM33.3561 28.8883C33.0128 28.5357 32.4168 28.0523 31.6396 28.0523V28.8523C32.083 28.8523 32.481 29.1363 32.7829 29.4463L33.3561 28.8883ZM38.3397 33.8718L33.3524 28.8845L32.7867 29.4501L37.7741 34.4375L38.3397 33.8718ZM38.3205 37.4735C38.6896 37.0857 39.0661 36.5559 39.156 35.9184C39.2498 35.2535 39.0213 34.5534 38.3397 33.8718L37.7741 34.4375C38.3132 34.9767 38.4161 35.4362 38.3638 35.8067C38.3077 36.2046 38.0607 36.586 37.741 36.9219L38.3205 37.4735ZM37.4119 38.3873C37.7218 38.0857 38.0283 37.7876 38.3236 37.4701L37.7379 36.9252C37.4584 37.2257 37.1663 37.51 36.854 37.814L37.4119 38.3873ZM37.4069 38.3921L37.4071 38.3919L36.8588 37.8093L36.8586 37.8095L37.4069 38.3921ZM37.2117 38.5824C37.2788 38.5169 37.3453 38.4521 37.4117 38.3875L36.8538 37.8141C36.7875 37.8786 36.7203 37.944 36.6526 38.0102L37.2117 38.5824ZM35.5033 40.3497C36.037 39.7144 36.6242 39.1436 37.2084 38.5856L36.6558 38.0071C36.0716 38.5651 35.4556 39.1627 34.8907 39.8352L35.5033 40.3497ZM31.6832 41.9747C33.2436 41.9747 34.468 41.4625 35.4898 40.365L34.9042 39.8199C34.0427 40.7453 33.0349 41.1747 31.6832 41.1747V41.9747ZM31.231 41.9565C31.3695 41.9652 31.5295 41.9747 31.6832 41.9747V41.1747C31.5578 41.1747 31.4214 41.1669 31.2809 41.1581L31.231 41.9565ZM23.9695 39.7912C25.8697 40.6931 28.4385 41.7769 31.2302 41.9565L31.2816 41.1581C28.6499 40.9889 26.1965 39.9627 24.3126 39.0684L23.9695 39.7912ZM10.4154 29.1885C14.2003 33.7128 18.7532 37.2799 23.9675 39.7902L24.3146 39.0694C19.2054 36.6097 14.7426 33.1143 11.029 28.6752L10.4154 29.1885ZM23.5154 9.90255C23.5747 9.54724 23.9163 9.29897 24.2855 9.35959L24.4151 8.57016C23.6159 8.43895 22.8589 8.97541 22.7263 9.77104L23.5154 9.90255ZM24.0586 10.6716C23.7032 10.6124 23.455 10.2708 23.5156 9.9016L22.7262 9.77199C22.595 10.5712 23.1314 11.3282 23.927 11.4608L24.0586 10.6716ZM30.5964 14.0611C28.7951 12.2688 26.5407 11.0959 24.0602 10.6719L23.9254 11.4605C26.2405 11.8561 28.3457 12.9502 30.0321 14.6282L30.5964 14.0611ZM33.9869 20.5987C33.5631 18.1187 32.3904 15.8551 30.5971 14.0618L30.0314 14.6275C31.7083 16.3044 32.8026 18.4178 33.1984 20.7334L33.9869 20.5987ZM34.6477 21.1554C34.3227 21.1554 34.0413 20.9246 33.9872 20.6003L33.1981 20.7318C33.3184 21.4538 33.9438 21.9554 34.6477 21.9554V21.1554ZM34.7742 21.142C34.7082 21.1514 34.6755 21.1554 34.6477 21.1554V21.9554C34.7419 21.9554 34.8313 21.942 34.8874 21.934L34.7742 21.142ZM35.3091 20.3801C35.3736 20.7345 35.1307 21.0834 34.766 21.1433L34.8956 21.9327C35.6993 21.8007 36.2411 21.0336 36.0962 20.237L35.3091 20.3801ZM31.5485 13.119C33.5395 15.11 34.8427 17.6243 35.3083 20.3753L36.0971 20.2418C35.6035 17.3253 34.2213 14.6605 32.1142 12.5534L31.5485 13.119ZM24.2835 9.35927C27.0346 9.82483 29.5405 11.1195 31.5491 13.1196L32.1136 12.5528C29.9893 10.4374 27.3334 9.06402 24.417 8.57048L24.2835 9.35927Z" fill="#526DB4" mask="url(#path-1-outside-1_924_197)"/>
</svg>
